<svg width="538" height="394" viewBox="0 0 538 394" fill="none" xmlns="http://www.w3.org/2000/svg">
<line x1="10.6588" y1="1.88106e-08" x2="10.6588" y2="394" stroke="#F4EFF6" stroke-width="0.856749"/>
<line x1="24.3034" y1="1.88106e-08" x2="24.3034" y2="394" stroke="#F4EFF6" stroke-width="0.856749"/>
<line x1="37.944" y1="1.88106e-08" x2="37.944" y2="394" stroke="#F4EFF6" stroke-width="0.856749"/>
<line x1="51.5847" y1="1.88156e-08" x2="51.5847" y2="394" stroke="#F4EFF6" stroke-width="0.856749"/>
<line x1="65.2252" y1="1.88106e-08" x2="65.2252" y2="394" stroke="#F4EFF6" stroke-width="0.856749"/>
<line x1="78.8659" y1="1.88156e-08" x2="78.8659" y2="394" stroke="#F4EFF6" stroke-width="0.856749"/>
<line x1="92.5104" y1="1.88106e-08" x2="92.5104" y2="394" stroke="#F4EFF6" stroke-width="0.856749"/>
<line x1="106.155" y1="1.88106e-08" x2="106.155" y2="394" stroke="#F4EFF6" stroke-width="0.856749"/>
<line x1="119.796" y1="1.88106e-08" x2="119.796" y2="394" stroke="#F4EFF6" stroke-width="0.856749"/>
<line x1="133.436" y1="1.88106e-08" x2="133.436" y2="394" stroke="#F4EFF6" stroke-width="0.856749"/>
<line x1="147.077" y1="1.88156e-08" x2="147.077" y2="394" stroke="#F4EFF6" stroke-width="0.856749"/>
<line x1="160.717" y1="1.88106e-08" x2="160.717" y2="394" stroke="#F4EFF6" stroke-width="0.856749"/>
<line x1="174.362" y1="1.88156e-08" x2="174.362" y2="394" stroke="#F4EFF6" stroke-width="0.856749"/>
<line x1="188.006" y1="1.88106e-08" x2="188.006" y2="394" stroke="#F4EFF6" stroke-width="0.856749"/>
<line x1="201.647" y1="1.88106e-08" x2="201.647" y2="394" stroke="#F4EFF6" stroke-width="0.856749"/>
<line x1="215.288" y1="1.88106e-08" x2="215.288" y2="394" stroke="#F4EFF6" stroke-width="0.856749"/>
<line x1="228.928" y1="1.88106e-08" x2="228.928" y2="394" stroke="#F4EFF6" stroke-width="0.856749"/>
<line x1="242.573" y1="1.88156e-08" x2="242.573" y2="394" stroke="#F4EFF6" stroke-width="0.856749"/>
<line x1="256.214" y1="1.88106e-08" x2="256.214" y2="394" stroke="#F4EFF6" stroke-width="0.856749"/>
<line x1="269.854" y1="1.88106e-08" x2="269.854" y2="394" stroke="#F4EFF6" stroke-width="0.856749"/>
<line x1="283.495" y1="1.88106e-08" x2="283.495" y2="394" stroke="#F4EFF6" stroke-width="0.856749"/>
<line x1="297.139" y1="1.88106e-08" x2="297.139" y2="394" stroke="#F4EFF6" stroke-width="0.856749"/>
<line x1="310.78" y1="1.88156e-08" x2="310.78" y2="394" stroke="#F4EFF6" stroke-width="0.856749"/>
<line x1="324.424" y1="1.88106e-08" x2="324.424" y2="394" stroke="#F4EFF6" stroke-width="0.856749"/>
<line x1="338.061" y1="1.88156e-08" x2="338.061" y2="394" stroke="#F4EFF6" stroke-width="0.856749"/>
<line x1="351.706" y1="1.88106e-08" x2="351.706" y2="394" stroke="#F4EFF6" stroke-width="0.856749"/>
<line x1="365.346" y1="1.88106e-08" x2="365.346" y2="394" stroke="#F4EFF6" stroke-width="0.856749"/>
<line x1="378.987" y1="1.88106e-08" x2="378.987" y2="394" stroke="#F4EFF6" stroke-width="0.856749"/>
<line x1="392.631" y1="1.88106e-08" x2="392.631" y2="394" stroke="#F4EFF6" stroke-width="0.856749"/>
<line x1="406.272" y1="1.88156e-08" x2="406.272" y2="394" stroke="#F4EFF6" stroke-width="0.856749"/>
<line x1="419.917" y1="1.88106e-08" x2="419.917" y2="394" stroke="#F4EFF6" stroke-width="0.856749"/>
<line x1="433.557" y1="1.88156e-08" x2="433.557" y2="394" stroke="#F4EFF6" stroke-width="0.856749"/>
<line x1="447.202" y1="1.88106e-08" x2="447.202" y2="394" stroke="#F4EFF6" stroke-width="0.856749"/>
<line x1="460.842" y1="1.88106e-08" x2="460.842" y2="394" stroke="#F4EFF6" stroke-width="0.856749"/>
<line x1="474.483" y1="1.88106e-08" x2="474.483" y2="394" stroke="#F4EFF6" stroke-width="0.856749"/>
<line x1="488.124" y1="1.88106e-08" x2="488.124" y2="394" stroke="#F4EFF6" stroke-width="0.856749"/>
<line x1="501.764" y1="1.88156e-08" x2="501.764" y2="394" stroke="#F4EFF6" stroke-width="0.856749"/>
<line x1="515.409" y1="1.88106e-08" x2="515.409" y2="394" stroke="#F4EFF6" stroke-width="0.856749"/>
<line x1="529.053" y1="1.88156e-08" x2="529.053" y2="394" stroke="#F4EFF6" stroke-width="0.856749"/>
<line x1="538" y1="12.4196" y2="12.4196" stroke="#F4EFF6" stroke-width="0.856749"/>
<line x1="538" y1="26.1237" y2="26.1237" stroke="#F4EFF6" stroke-width="0.856749"/>
<line x1="538" y1="39.8288" y2="39.8288" stroke="#F4EFF6" stroke-width="0.856749"/>
<line x1="538" y1="53.5329" y2="53.5329" stroke="#F4EFF6" stroke-width="0.856749"/>
<line x1="538" y1="67.237" y2="67.237" stroke="#F4EFF6" stroke-width="0.856749"/>
<line x1="538" y1="80.942" y2="80.942" stroke="#F4EFF6" stroke-width="0.856749"/>
<line x1="538" y1="94.6452" y2="94.6452" stroke="#F4EFF6" stroke-width="0.856749"/>
<line x1="538" y1="108.35" y2="108.35" stroke="#F4EFF6" stroke-width="0.856749"/>
<line x1="538" y1="122.054" y2="122.054" stroke="#F4EFF6" stroke-width="0.856749"/>
<line x1="538" y1="135.758" y2="135.758" stroke="#F4EFF6" stroke-width="0.856749"/>
<line x1="538" y1="149.464" y2="149.464" stroke="#F4EFF6" stroke-width="0.856749"/>
<line x1="538" y1="163.168" y2="163.168" stroke="#F4EFF6" stroke-width="0.856749"/>
<line x1="538" y1="176.872" y2="176.872" stroke="#F4EFF6" stroke-width="0.856749"/>
<line x1="538" y1="190.577" y2="190.577" stroke="#F4EFF6" stroke-width="0.856749"/>
<line x1="538" y1="204.28" y2="204.28" stroke="#F4EFF6" stroke-width="0.856749"/>
<line x1="538" y1="217.985" y2="217.985" stroke="#F4EFF6" stroke-width="0.856749"/>
<line x1="538" y1="231.689" y2="231.689" stroke="#F4EFF6" stroke-width="0.856749"/>
<line x1="538" y1="245.393" y2="245.393" stroke="#F4EFF6" stroke-width="0.856749"/>
<line x1="538" y1="259.098" y2="259.098" stroke="#F4EFF6" stroke-width="0.856749"/>
<line x1="538" y1="272.802" y2="272.802" stroke="#F4EFF6" stroke-width="0.856749"/>
<line x1="538" y1="286.506" y2="286.507" stroke="#F4EFF6" stroke-width="0.856749"/>
<line x1="538" y1="300.212" y2="300.212" stroke="#F4EFF6" stroke-width="0.856749"/>
<line x1="538" y1="313.915" y2="313.915" stroke="#F4EFF6" stroke-width="0.856749"/>
<line x1="538" y1="327.62" y2="327.62" stroke="#F4EFF6" stroke-width="0.856749"/>
<line x1="538" y1="341.324" y2="341.324" stroke="#F4EFF6" stroke-width="0.856749"/>
<line x1="538" y1="355.028" y2="355.028" stroke="#F4EFF6" stroke-width="0.856749"/>
<line x1="538" y1="368.733" y2="368.733" stroke="#F4EFF6" stroke-width="0.856749"/>
<line x1="538" y1="382.437" y2="382.437" stroke="#F4EFF6" stroke-width="0.856749"/>
</svg>
